<?xml version="1.0" encoding="UTF-8"?>
<!DOCTYPE svg PUBLIC "-//W3C//DTD SVG 1.1//EN" "http://www.w3.org/Graphics/SVG/1.1/DTD/svg11.dtd">
<!-- Creator: CorelDRAW X7 -->
<svg xmlns="http://www.w3.org/2000/svg" xml:space="preserve" width="110.807mm" height="29.5456mm" version="1.1" style="shape-rendering:geometricPrecision; text-rendering:geometricPrecision; image-rendering:optimizeQuality; fill-rule:evenodd; clip-rule:evenodd"
viewBox="0 0 161943 43180"
 xmlns:xlink="http://www.w3.org/1999/xlink">
 <defs>
  <style type="text/css">
   <![CDATA[
    .fil2 {fill:#6A6768}
    .fil3 {fill:#A0312E}
    .fil1 {fill:#F08431}
    .fil0 {fill:white}
   ]]>
  </style>
 </defs>
 <g id="Layer_x0020_1">
  <metadata id="CorelCorpID_0Corel-Layer"/>
  <path class="fil0" d="M151553 27302l5757 0 553 -2489 -14054 0 -559 2520 5661 0 249 0 -57 267 -1777 8307 2178 0 1859 -8438 40 -167 150 0 0 0zm-104359 8650l0 0 10539 0 580 -2632 -11354 0 -248 0 61 -271 275 -1255 39 -166 152 0 11448 0 567 -2555 -11438 0 -249 0 63 -270 296 -1346 37 -169 150 0 11534 0 559 -2523 -10418 0c-511,0 -986,77 -1429,227 -444,150 -853,376 -1230,677l-3 3c-403,316 -734,688 -996,1128 -263,440 -460,938 -582,1502l-927 4199c-113,506 -130,971 -51,1387 71,410 241,782 503,1115l-3 0c252,316 554,554 905,709 356,159 760,240 1220,240l0 0zm16005 -8570l0 0 -154 0 -37 166 -275 1255 -58 270 247 0 11146 0 -543 2461 -11244 0 -152 0 -37 166 -927 4207 -2135 0 1656 -7512c135,-610 342,-1140 618,-1590 277,-446 624,-817 1042,-1112l0 -1c374,-267 792,-466 1260,-601 469,-135 983,-203 1549,-203l9862 0 -548 2494 -11270 0 0 0zm14286 0l0 0 11272 0 551 -2493 -9868 0c-557,0 -1076,68 -1547,202 -465,135 -885,335 -1261,601l0 2c-420,294 -765,665 -1040,1111 -276,451 -482,980 -617,1590l-1657 7512 2134 0 929 -4207 39 -166 150 0 11240 0 549 -2461 -11150 0 -249 0 60 -269 279 -1256 36 -165 150 0 0 -1zm10551 8633l0 0 2478 -11219 2452 0 -2477 11219 -2454 0 1 0zm6873 -108l0 0 10981 0 543 -2449 -11591 0 -246 0 59 -269 1271 -5766 40 -166 149 0 11685 0 542 -2444 -10376 0c-646,0 -1220,80 -1725,246 -501,158 -935,399 -1302,723 -369,320 -681,738 -942,1249 -268,520 -482,1142 -641,1862l-858 3889c-99,455 -113,870 -37,1241 76,372 236,708 486,1010 242,290 522,507 844,651 330,149 700,223 1118,223l0 0zm12227 108l0 0 2474 -11219 2453 0 -2475 11219 -2452 0 0 0zm7206 -63l0 0 10540 0 580 -2632 -11351 0 -249 0 60 -271 278 -1255 37 -166 151 0 11449 0 562 -2555 -11433 0 -249 0 60 -270 297 -1346 36 -169 152 0 11535 0 556 -2523 -10415 0c-512,0 -988,77 -1432,227 -439,150 -851,376 -1232,677l0 3c-401,316 -735,688 -997,1128 -263,440 -460,938 -579,1502l-929 4199c-111,506 -128,968 -52,1387 77,410 243,782 500,1115 255,316 557,554 904,709 356,159 762,240 1221,240l0 0zm25945 -1765l0 0c-181,358 -405,684 -676,974 -288,303 -595,537 -923,687 -325,150 -675,228 -1046,228 -688,0 -1270,-350 -1743,-1044l-5236 -7688 -246 -361 -96 440 -1885 8527 -2166 -37 1929 -8741c79,-352 210,-681 395,-983 187,-307 432,-590 730,-850 301,-260 607,-457 917,-584l0 0c305,-128 616,-192 931,-192 336,0 651,86 931,257 291,172 552,434 792,782l5216 7752 244 361 99 -444 1859 -8429 2192 0 -1800 8161c-96,427 -234,825 -418,1184l0 0z"/>
  <path class="fil1" d="M37249 30461c-3129,3253 -2123,7557 -84,9356 2232,1962 4514,1595 7565,1655 24165,468 112772,-1472 117213,-1963 -5182,-40 -95000,-356 -116964,-956 -6173,-164 -9201,-1722 -7730,-8092l0 0z"/>
  <path class="fil2" d="M47649 21322c-4260,-3294 -9939,759 -18050,3447 -5527,1833 -12771,3089 -18468,1007 -5966,-2177 -7871,-7556 -6239,-14070 -9155,9446 -5556,22568 11609,22336 12246,-169 24780,-15271 31148,-12720l0 0z"/>
  <path class="fil1" d="M47236 21517c-5992,1155 -11328,8981 -18616,13582 -6515,4114 -17817,6029 -26083,-2477 5574,3351 10540,4122 15054,3723 5986,-528 11500,-4418 18230,-9625 1161,-753 8271,-6033 11415,-5203l0 0z"/>
  <path class="fil3" d="M34129 32861c-4659,5058 -9111,7236 -16908,8040 8430,2384 13747,2933 21065,1481 -3802,-2367 -5231,-4755 -4157,-9521z"/>
  <path class="fil3" d="M22928 25215c-17790,-5261 -11301,-17633 126,-24750 -8841,1794 -17017,9483 -16997,15391 15,4745 4155,10158 16871,9359z"/>
  <path class="fil1" d="M48460 750c-18163,-1835 -35326,11040 -24864,23425 -21663,-7435 -437,-28379 24864,-23425z"/>
  <path class="fil1" d="M45668 19862c-2353,-1478 -4319,-2201 -6416,-2208 -6892,-14 -10466,4244 -16655,969 2489,7597 10147,2414 18681,1105 1473,-225 2913,-39 4390,134l0 0z"/>
 </g>
</svg>
