<?xml version="1.0" encoding="UTF-8"?>
<!DOCTYPE svg PUBLIC "-//W3C//DTD SVG 1.1//EN" "http://www.w3.org/Graphics/SVG/1.1/DTD/svg11.dtd">
<!-- Creator: CorelDRAW X7 -->
<svg xmlns="http://www.w3.org/2000/svg" xml:space="preserve" width="110.807mm" height="33.1058mm" version="1.1" style="shape-rendering:geometricPrecision; text-rendering:geometricPrecision; image-rendering:optimizeQuality; fill-rule:evenodd; clip-rule:evenodd"
viewBox="0 0 82162 24547"
 xmlns:xlink="http://www.w3.org/1999/xlink">
 <defs>
  <style type="text/css">
   <![CDATA[
    .fil0 {fill:#FEFEFE}
    .fil2 {fill:#6A6768}
    .fil3 {fill:#A0312E}
    .fil1 {fill:#F08431}
   ]]>
  </style>
 </defs>
 <g id="Layer_x0020_1">
  <metadata id="CorelCorpID_0Corel-Layer"/>
  <path class="fil0" d="M76890 13852l2921 0 280 -1263 -7130 0 -283 1278 2872 0 126 0 -29 136 -902 4214 1105 0 944 -4281 20 -85 76 0 0 1zm-52946 4388l0 0 5347 0 294 -1335 -5760 0 -126 0 30 -137 140 -637 20 -84 77 0 5808 0 288 -1297 -5803 0 -127 0 33 -137 150 -683 18 -86 77 0 5851 0 284 -1280 -5286 0c-259,0 -500,40 -724,116 -226,76 -433,191 -625,343l-1 1c-205,161 -373,350 -505,573 -134,223 -234,476 -296,762l-470 2130c-57,257 -66,493 -26,704 36,208 122,397 255,566l-1 0c128,160 281,281 459,359 181,81 386,122 619,122l0 0zm8120 -4348l0 0 -78 0 -19 84 -140 637 -29 137 125 0 5655 0 -275 1249 -5705 0 -77 0 -19 84 -470 2134 -1083 0 840 -3811c68,-309 174,-578 313,-807 141,-226 317,-414 529,-564l0 0c190,-135 402,-237 639,-305 238,-68 499,-103 786,-103l5004 0 -278 1265 -5718 0 0 0zm7248 0l0 0 5719 0 279 -1265 -5006 0c-283,0 -546,35 -785,103 -236,68 -449,170 -640,305l0 1c-213,149 -388,337 -528,564 -140,228 -244,497 -312,806l-841 3812 1083 0 471 -2135 19 -84 77 0 5702 0 279 -1249 -5657 0 -126 0 30 -136 142 -637 18 -84 76 0 0 -1zm5353 4380l0 0 1257 -5692 1244 0 -1257 5692 -1244 0 0 0zm3487 -55l0 0 5571 0 276 -1242 -5881 0 -125 0 30 -137 645 -2925 20 -84 76 0 5928 0 275 -1240 -5264 0c-328,0 -619,41 -875,125 -255,80 -474,202 -661,366 -187,163 -345,375 -478,634 -136,264 -244,580 -325,945l-435 1973c-50,231 -57,441 -19,630 39,188 119,358 247,512 122,147 264,257 428,330 167,76 355,113 567,113l0 0zm6203 55l0 0 1255 -5692 1245 0 -1256 5692 -1244 0 0 0zm3656 -32l0 0 5348 0 294 -1335 -5759 0 -126 0 30 -137 141 -637 19 -84 77 0 5808 0 285 -1297 -5800 0 -127 0 31 -137 151 -683 18 -86 77 0 5852 0 282 -1280 -5284 0c-260,0 -501,40 -726,116 -223,76 -432,191 -625,343l0 1c-204,161 -373,350 -506,573 -134,223 -233,476 -294,762l-471 2130c-57,257 -65,491 -27,704 40,208 124,397 254,566 130,160 283,281 459,359 180,81 386,122 619,122l0 0zm13163 -895l0 0c-91,181 -205,347 -343,494 -146,154 -301,272 -468,348 -165,77 -342,116 -531,116 -349,0 -644,-178 -884,-529l-2656 -3901 -125 -183 -49 223 -956 4326 -1099 -19 978 -4434c41,-179 107,-346 201,-499 95,-156 219,-299 370,-431 153,-132 308,-232 465,-296l0 0c155,-66 313,-98 473,-98 170,0 330,43 472,131 148,87 280,219 402,396l2646 3933 124 183 50 -225 944 -4276 1112 0 -914 4140c-48,217 -118,419 -212,601l0 0z"/>
  <path class="fil1" d="M18898 15454c-1587,1650 -1077,3835 -42,4747 1132,995 2290,809 3838,840 12260,237 57214,-747 59468,-996 -2630,-20 -48199,-181 -59342,-485 -3132,-84 -4668,-874 -3922,-4105l0 -1z"/>
  <path class="fil0" d="M25020 22858l817 0 145 1081 736 -1081 812 0 -455 1666 -443 0 350 -1250 -74 0 -897 1250 -376 0 -216 -1250 -80 0 -329 1250 -444 0 454 -1666 0 0zm6405 -24l0 0c310,0 524,9 639,28 165,27 246,119 242,276 -4,111 -40,293 -111,554 -71,259 -134,445 -191,554 -81,156 -214,249 -393,275 -124,18 -345,26 -666,26 -319,0 -536,-8 -651,-26 -167,-26 -246,-119 -243,-275 3,-109 39,-295 111,-554 70,-262 135,-444 191,-554 83,-157 213,-249 394,-276 125,-19 351,-28 678,-28l0 0zm-148 434l0 0c-226,0 -365,6 -418,20 -63,18 -111,55 -144,117 -32,59 -70,167 -113,327 -29,104 -42,178 -46,225 -6,84 34,132 123,143 65,11 192,16 384,16 191,0 322,-5 391,-16 95,-11 164,-59 203,-143 23,-48 48,-119 73,-217 34,-121 55,-205 63,-255 13,-84 5,-140 -25,-167 -25,-26 -88,-42 -192,-48 -36,-2 -136,-2 -299,-2l0 0zm3929 -410l0 0 1790 0 -115 424 -658 0 -339 1242 -473 0 339 -1242 -660 0 116 -424zm5608 -24l0 0c311,0 524,9 639,28 165,27 247,119 242,276 -4,111 -39,293 -112,554 -70,259 -134,445 -189,554 -84,156 -215,249 -395,275 -124,18 -345,26 -666,26 -319,0 -535,-8 -651,-26 -165,-26 -245,-119 -242,-275 2,-109 39,-295 110,-554 72,-262 135,-444 191,-554 83,-157 215,-249 394,-276 126,-19 351,-28 679,-28l0 0zm-148 434l0 0c-227,0 -366,6 -417,20 -64,18 -113,55 -146,117 -32,59 -69,167 -113,327 -28,104 -44,178 -47,225 -5,84 38,132 124,143 65,11 193,16 385,16 192,0 321,-5 390,-16 97,-11 163,-59 203,-143 22,-48 48,-119 75,-217 33,-121 51,-205 61,-255 13,-84 5,-140 -23,-167 -27,-26 -91,-42 -192,-48 -38,-2 -136,-2 -300,-2zm3553 1256l0 0 455 -1666 1088 0c259,2 408,4 454,9 52,6 93,22 129,51 35,30 59,65 71,110 10,50 13,100 3,150 -11,63 -28,136 -52,222 -36,137 -69,231 -101,284 -47,81 -110,135 -190,167 -24,10 -64,19 -114,28 94,9 153,38 179,89 11,26 17,54 17,82 0,32 -8,77 -21,134 -8,29 -23,92 -48,185l-42 155 -446 0 24 -90c26,-99 41,-169 46,-213 5,-62 -15,-98 -59,-108 -29,-7 -93,-13 -191,-13l-637 0 -114 424 -450 0 -1 0zm680 -840l0 0 634 0c95,-1 150,-2 168,-5 66,-3 112,-25 139,-65 18,-29 38,-74 55,-141 15,-55 22,-99 19,-126 -5,-41 -33,-65 -90,-69 -20,-1 -79,-2 -182,-4l-632 0 -111 410 0 0zm5011 -826l0 0 1563 0 -108 391 -1112 0 -85 315 1058 0 -105 383 -1059 0 -155 577 -452 0 455 -1666zm3896 1666l0 0 455 -1666 1088 0c257,2 408,4 452,9 54,6 96,22 130,51 35,30 59,65 70,110 11,50 13,100 4,150 -9,63 -27,136 -51,222 -37,137 -70,231 -102,284 -49,81 -109,135 -189,167 -27,10 -65,19 -115,28 92,9 153,38 180,89 13,26 17,54 17,82 0,32 -7,77 -21,134 -9,29 -23,92 -49,185l-43 155 -446 0 25 -90c25,-99 42,-169 46,-213 4,-62 -15,-98 -57,-108 -31,-7 -95,-13 -194,-13l-635 0 -113 424 -452 0zm680 -840l0 0 633 0c95,-1 151,-2 171,-5 62,-3 110,-25 136,-65 18,-29 39,-74 56,-141 14,-55 21,-99 20,-126 -6,-41 -35,-65 -94,-69 -18,-1 -77,-2 -179,-4l-631 0 -112 410 0 0zm4454 -826l0 0 1639 0 -106 391 -1196 0 -65 240 1133 0 -98 366 -1134 0 -74 268 1204 0 -111 401 -1645 0 453 -1666zm4474 0l0 0 472 0 -454 1666 -474 0 456 -1666zm4066 721l0 0 1030 0c-10,38 -15,61 -18,71 -59,220 -111,387 -154,505 -69,192 -198,308 -386,348 -94,22 -199,34 -307,38 -117,5 -254,6 -411,6 -279,0 -476,-10 -591,-34 -156,-29 -235,-116 -236,-256 0,-70 7,-151 30,-240 28,-110 59,-231 94,-357 57,-215 106,-366 150,-452 58,-122 128,-207 203,-258 42,-24 89,-46 143,-61 53,-14 129,-24 221,-35 134,-12 309,-20 530,-20 283,0 480,15 592,41 111,22 182,68 214,132 27,58 27,147 4,271 -8,33 -20,85 -38,153l-451 0c12,-44 17,-73 17,-90 3,-40 -23,-64 -75,-73 -68,-11 -207,-16 -419,-16 -187,0 -319,7 -393,21 -73,15 -127,56 -161,127 -24,53 -57,149 -94,284 -44,158 -66,265 -70,322 -6,79 33,121 111,129 40,5 160,9 364,10 224,-1 368,-5 434,-13 62,-10 103,-39 124,-87 14,-29 28,-73 44,-135l-593 0 92 -331 0 0zm4090 -721l0 0 475 0 -165 596 1020 0 162 -596 472 0 -453 1666 -473 0 164 -603 -1020 0 -165 603 -471 0 454 -1666 0 0zm4752 0l0 0 1792 0 -118 424 -658 0 -338 1242 -473 0 337 -1242 -658 0 116 -424 0 0z"/>
  <path class="fil2" d="M24175 10818c-2162,-1671 -5043,385 -9158,1749 -2804,930 -6479,1567 -9370,510 -3026,-1104 -3993,-3833 -3165,-7138 -4645,4792 -2819,11450 5890,11332 6213,-86 12572,-7747 15803,-6453l0 0z"/>
  <path class="fil1" d="M23965 10917c-3040,586 -5747,4556 -9445,6890 -3305,2088 -9039,3059 -13233,-1256 2828,1700 5348,2091 7638,1889 3037,-268 5834,-2242 9249,-4884 589,-382 4196,-3060 5791,-2639l0 0z"/>
  <path class="fil3" d="M17315 16672c-2363,2566 -4622,3671 -8578,4079 4277,1209 6975,1488 10687,752 -1929,-1201 -2654,-2413 -2109,-4831z"/>
  <path class="fil3" d="M11633 12793c-9026,-2669 -5734,-8946 63,-12557 -4485,910 -8633,4811 -8623,7809 8,2407 2108,5153 8560,4748z"/>
  <path class="fil1" d="M24586 380c-9215,-930 -17922,5601 -12615,11885 -10990,-3772 -221,-14398 12615,-11885z"/>
  <path class="fil1" d="M23170 10077c-1194,-750 -2192,-1117 -3256,-1120 -3496,-8 -5310,2153 -8449,491 1262,3855 5148,1225 9477,561 748,-114 1478,-20 2227,68l1 0z"/>
 </g>
</svg>
