<?xml version="1.0" encoding="UTF-8"?>
<!DOCTYPE svg PUBLIC "-//W3C//DTD SVG 1.1//EN" "http://www.w3.org/Graphics/SVG/1.1/DTD/svg11.dtd">
<!-- Creator: CorelDRAW X7 -->
<svg xmlns="http://www.w3.org/2000/svg" xml:space="preserve" width="47.4065mm" height="14.1636mm" version="1.1" style="shape-rendering:geometricPrecision; text-rendering:geometricPrecision; image-rendering:optimizeQuality; fill-rule:evenodd; clip-rule:evenodd"
viewBox="0 0 16890 5046"
 xmlns:xlink="http://www.w3.org/1999/xlink">
 <defs>
  <style type="text/css">
   <![CDATA[
    .fil0 {fill:#727271}
   ]]>
  </style>
 </defs>
 <g id="Layer_x0020_1">
  <metadata id="CorelCorpID_0Corel-Layer"/>
  <g id="_854289008">
   <path class="fil0" d="M15806 2847l600 0 58 -259 -1466 0 -58 263 590 0 26 0 -6 28 -185 866 227 0 194 -880 4 -18 16 0 0 0zm-10884 903l0 0 1099 0 61 -275 -1185 0 -25 0 6 -28 29 -131 4 -17 16 0 1194 0 59 -267 -1193 0 -26 0 6 -28 31 -140 4 -18 16 0 1203 0 58 -263 -1087 0c-53,0 -102,8 -149,24 -46,15 -89,39 -128,70l0 0c-42,33 -77,72 -104,118 -27,46 -48,98 -61,157l-96 438c-12,52 -14,101 -6,144 8,43 25,82 53,117l-1 0c27,32 58,57 95,73 37,17 79,25 127,25l0 1zm1669 -894l0 0 -16 0 -4 17 -28 131 -6 28 25 0 1163 0 -57 257 -1173 0 -15 0 -4 17 -97 439 -223 0 173 -784c14,-63 36,-118 65,-165 28,-47 65,-86 108,-116l0 -1c39,-27 83,-48 132,-62 49,-14 102,-21 161,-21l1029 0 -57 260 -1176 0 0 0zm1490 0l0 0 1176 0 57 -260 -1029 0c-58,0 -112,7 -161,21 -49,14 -93,35 -132,63l0 0c-44,30 -80,69 -108,116 -29,47 -51,102 -65,165l-173 784 223 0 97 -439 4 -17 16 0 1172 0 57 -257 -1163 0 -26 0 7 -28 29 -131 3 -17 16 0 0 0zm1100 900l0 0 259 -1170 256 0 -259 1170 -256 0 0 0zm717 -11l0 0 1146 0 56 -256 -1209 0 -25 0 6 -28 132 -601 5 -17 15 0 1219 0 56 -255 -1082 0c-67,0 -127,8 -180,25 -52,17 -97,42 -135,76 -39,33 -71,77 -99,130 -28,54 -50,119 -67,194l-89 406c-10,47 -12,91 -4,129 8,39 25,74 51,106 25,30 54,53 88,68 34,15 73,23 116,23l0 0zm1276 11l0 0 258 -1170 255 0 -258 1170 -255 0 0 0zm751 -6l0 0 1099 0 61 -275 -1184 0 -26 0 6 -28 29 -131 4 -17 16 0 1194 0 59 -267 -1193 0 -26 0 6 -28 31 -140 4 -18 16 0 1203 0 58 -263 -1086 0c-54,0 -103,8 -150,24 -45,15 -88,39 -128,70l0 0c-42,33 -77,72 -104,118 -27,46 -48,98 -60,157l-97 438c-12,52 -14,101 -6,144 8,43 26,82 52,117 27,32 59,57 95,73 37,17 79,25 127,25l0 1zm2706 -185l0 0c-19,38 -42,72 -71,102 -30,32 -62,56 -96,72 -34,15 -70,23 -109,23 -72,0 -132,-36 -182,-108l-546 -802 -25 -38 -10 46 -197 889 -226 -3 201 -912c8,-37 22,-71 41,-103 20,-32 45,-61 77,-88 31,-27 63,-48 95,-61l0 0c32,-14 64,-20 97,-20 35,0 68,9 97,27 31,18 58,45 83,81l544 809 25 37 11 -46 194 -879 228 0 -187 851c-10,45 -25,86 -44,123l0 0z"/>
   <path class="fil0" d="M3885 3177c-326,339 -222,788 -9,976 233,204 471,166 789,172 2520,49 11761,-153 12225,-204 -541,-5 -9908,-38 -12199,-100 -644,-17 -960,-180 -806,-844l0 0z"/>
   <path class="fil0" d="M5143 4699l168 0 30 222 151 -222 167 0 -93 342 -91 0 72 -257 -16 0 -184 257 -77 0 -45 -257 -16 0 -68 257 -91 0 93 -342 0 0zm1317 -5l0 0c64,0 108,2 131,6 34,5 51,24 50,56 -1,23 -8,61 -23,114 -14,54 -27,92 -39,114 -17,32 -44,51 -81,57 -25,3 -71,5 -137,5 -65,0 -110,-2 -134,-5 -34,-6 -50,-25 -50,-57 1,-22 8,-60 23,-114 15,-54 28,-91 40,-114 16,-32 43,-51 81,-56 25,-4 72,-6 139,-6l0 0zm-31 89l0 0c-46,0 -75,1 -85,4 -13,4 -23,12 -30,24 -7,12 -14,35 -23,67 -6,22 -9,37 -10,47 -1,17 7,27 26,29 13,2 39,3 78,3 40,0 67,-1 81,-3 19,-2 33,-12 42,-29 4,-10 9,-25 15,-45 7,-25 11,-42 12,-52 3,-18 2,-29 -5,-35 -5,-5 -18,-8 -39,-9 -8,-1 -28,-1 -62,-1l0 0zm808 -84l0 0 368 0 -24 87 -135 0 -70 255 -97 0 70 -255 -136 0 24 -87zm1153 -5l0 0c64,0 108,2 131,6 34,5 51,24 50,56 -1,23 -8,61 -23,114 -14,54 -27,92 -39,114 -17,32 -44,51 -81,57 -26,3 -71,5 -137,5 -66,0 -110,-2 -134,-5 -34,-6 -50,-25 -49,-57 0,-22 7,-60 22,-114 15,-54 28,-91 39,-114 17,-32 44,-51 81,-56 26,-4 72,-6 140,-6l0 0zm-30 89l0 0c-47,0 -76,1 -86,4 -13,4 -23,12 -30,24 -7,12 -14,35 -23,67 -6,22 -10,37 -10,47 -1,17 8,27 25,29 14,2 40,3 80,3 39,0 66,-1 80,-3 20,-2 33,-12 41,-29 5,-10 10,-25 16,-45 7,-25 10,-42 12,-52 3,-18 1,-29 -4,-35 -6,-5 -19,-8 -40,-9 -8,-1 -28,-1 -61,-1zm730 258l0 0 93 -342 224 0c53,0 84,1 93,2 11,1 20,4 27,10 7,6 12,13 15,23 2,10 2,20 0,31 -2,13 -6,28 -10,45 -8,28 -15,48 -21,59 -10,16 -23,27 -39,34 -5,2 -14,4 -24,6 19,1 32,8 37,18 2,5 3,11 3,17 0,6 -1,16 -4,27 -2,6 -5,19 -10,38l-8 32 -92 0 5 -18c5,-21 8,-35 9,-44 1,-13 -3,-20 -12,-22 -6,-2 -19,-3 -39,-3l-131 0 -23 87 -93 0 0 0zm140 -172l0 0 130 0c20,-1 31,-1 35,-1 13,-1 23,-5 28,-14 4,-6 8,-15 11,-29 3,-11 5,-20 4,-26 -1,-8 -6,-13 -18,-14 -4,0 -16,0 -38,-1l-129 0 -23 85 0 0zm1030 -170l0 0 321 0 -22 80 -229 0 -17 65 217 0 -21 79 -218 0 -32 118 -93 0 94 -342zm801 342l0 0 93 -342 224 0c53,0 84,1 93,2 11,1 19,4 27,10 7,6 12,13 14,23 2,10 2,20 1,31 -2,13 -6,28 -11,45 -7,28 -14,48 -21,59 -10,16 -22,27 -39,34 -5,2 -13,4 -23,6 19,1 31,8 37,18 2,5 3,11 3,17 0,6 -1,16 -4,27 -2,6 -5,19 -10,38l-9 32 -92 0 5 -18c6,-21 9,-35 10,-44 1,-13 -3,-20 -12,-22 -6,-2 -19,-3 -40,-3l-130 0 -23 87 -93 0zm139 -172l0 0 130 0c20,-1 32,-1 36,-1 12,-1 22,-5 28,-14 3,-6 8,-15 11,-29 3,-11 4,-20 4,-26 -1,-8 -7,-13 -19,-14 -4,0 -16,0 -37,-1l-130 0 -23 85 0 0zm916 -170l0 0 337 0 -22 80 -246 0 -13 49 233 0 -20 76 -233 0 -16 55 248 0 -23 82 -338 0 93 -342zm920 0l0 0 97 0 -94 342 -97 0 94 -342zm836 148l0 0 211 0c-2,8 -3,13 -3,15 -13,45 -23,79 -32,103 -14,40 -41,64 -79,72 -20,5 -41,7 -64,8 -24,1 -52,1 -84,1 -57,0 -98,-2 -122,-7 -32,-6 -48,-24 -48,-53 0,-14 1,-31 6,-49 6,-23 12,-47 19,-73 12,-45 22,-76 31,-93 12,-25 26,-43 42,-53 9,-5 18,-10 29,-13 11,-3 27,-5 46,-7 27,-2 63,-4 109,-4 58,0 99,3 121,8 23,5 38,14 45,27 5,12 5,31 0,56 -1,7 -4,18 -8,32l-92 0c2,-9 3,-15 3,-19 1,-8 -5,-13 -15,-15 -14,-2 -43,-3 -86,-3 -39,0 -66,1 -81,4 -15,3 -26,12 -33,26 -5,11 -12,31 -20,59 -8,32 -13,54 -14,66 -1,16 7,25 23,26 8,1 33,2 75,2 46,0 75,-1 89,-2 13,-2 21,-8 25,-18 3,-6 6,-15 10,-28l-122 0 19 -68 0 0zm840 -148l0 0 98 0 -34 122 210 0 33 -122 97 0 -93 342 -97 0 33 -124 -209 0 -34 124 -97 0 93 -342 0 0zm977 0l0 0 368 0 -24 87 -135 0 -69 255 -98 0 70 -255 -136 0 24 -87 0 0z"/>
   <path class="fil0" d="M4969 2224c-444,-344 -1036,79 -1882,359 -576,191 -1332,322 -1926,105 -622,-227 -821,-788 -651,-1467 -955,985 -579,2354 1211,2329 1277,-17 2584,-1592 3248,-1326l0 0z"/>
   <path class="fil0" d="M4926 2244c-625,120 -1181,937 -1941,1417 -680,429 -1858,628 -2720,-259 581,350 1099,430 1570,389 624,-56 1199,-461 1901,-1004 121,-79 863,-629 1190,-543l0 0z"/>
   <path class="fil0" d="M3559 3427c-485,528 -950,755 -1763,839 879,248 1434,306 2197,154 -397,-247 -546,-496 -434,-993z"/>
   <path class="fil0" d="M2391 2630c-1855,-549 -1178,-1839 13,-2582 -922,188 -1774,989 -1772,1606 1,495 433,1059 1759,976z"/>
   <path class="fil0" d="M5054 78c-1894,-191 -3684,1152 -2593,2443 -2259,-775 -46,-2959 2593,-2443z"/>
   <path class="fil0" d="M4763 2071c-246,-154 -451,-229 -669,-230 -719,-1 -1092,443 -1737,101 259,793 1058,252 1948,115 154,-23 304,-4 458,14l0 0z"/>
  </g>
 </g>
</svg>
