<?xml version="1.0" encoding="UTF-8"?>
<!DOCTYPE svg PUBLIC "-//W3C//DTD SVG 1.1//EN" "http://www.w3.org/Graphics/SVG/1.1/DTD/svg11.dtd">
<!-- Creator: CorelDRAW X7 -->
<svg xmlns="http://www.w3.org/2000/svg" xml:space="preserve" width="110.809mm" height="33.1056mm" version="1.1" style="shape-rendering:geometricPrecision; text-rendering:geometricPrecision; image-rendering:optimizeQuality; fill-rule:evenodd; clip-rule:evenodd"
viewBox="0 0 104617 31256"
 xmlns:xlink="http://www.w3.org/1999/xlink">
 <defs>
  <style type="text/css">
   <![CDATA[
    .fil1 {fill:#F08431}
    .fil3 {fill:#A0312E}
    .fil0 {fill:#6D6767}
    .fil2 {fill:#6A6768}
   ]]>
  </style>
 </defs>
 <g id="Layer_x0020_1">
  <metadata id="CorelCorpID_0Corel-Layer"/>
  <path class="fil0" d="M97905 17637l3719 0 357 -1608 -9079 0 -361 1628 3657 0 161 0 -37 173 -1148 5366 1407 0 1201 -5451 26 -108 97 0zm-67417 5588l0 0 6808 0 375 -1700 -7335 0 -160 0 39 -175 178 -811 25 -107 98 0 7396 0 366 -1651 -7389 0 -161 0 41 -174 191 -870 24 -109 97 0 7451 0 361 -1630 -6730 0c-330,0 -637,50 -923,147 -287,97 -551,243 -795,437l-2 2c-260,204 -474,445 -643,729 -170,284 -297,606 -376,970l-599 2713c-73,327 -84,627 -33,896 46,265 156,505 325,720l-2 0c163,204 358,358 585,458 230,103 491,155 788,155zm10339 -5536l0 0 -99 0 -24 107 -178 811 -37 174 159 0 7201 0 -351 1590 -7264 0 -98 0 -24 107 -599 2718 -1379 0 1070 -4853c87,-394 221,-736 399,-1027 179,-288 403,-528 673,-718l0 -1c242,-172 512,-301 814,-388 303,-87 635,-131 1001,-131l6371 0 -354 1611 -7281 0zm9229 0l0 0 7282 0 356 -1611 -6375 0c-360,0 -695,44 -999,131 -301,87 -572,216 -815,388l0 1c-271,190 -494,430 -672,718 -178,291 -311,633 -398,1027l-1071 4853 1379 0 600 -2718 25 -107 97 0 7261 0 355 -1590 -7203 0 -161 0 39 -174 180 -811 23 -107 97 0zm6816 5577l0 0 1601 -7248 1584 0 -1600 7248 -1585 0zm4440 -70l0 0 7094 0 351 -1582 -7488 0 -159 0 38 -174 821 -3725 26 -107 96 0 7549 0 350 -1579 -6703 0c-417,0 -788,52 -1114,159 -324,102 -604,258 -841,467 -239,207 -440,477 -609,807 -173,336 -311,738 -414,1203l-554 2512c-64,294 -73,562 -24,802 49,240 152,457 314,652 156,188 337,328 545,421 213,96 452,144 722,144zm7899 70l0 0 1598 -7248 1585 0 -1599 7248 -1584 0zm4655 -41l0 0 6809 0 375 -1700 -7333 0 -161 0 39 -175 179 -811 24 -107 98 0 7396 0 363 -1651 -7386 0 -161 0 39 -174 192 -870 23 -109 98 0 7452 0 359 -1630 -6728 0c-331,0 -638,50 -925,147 -284,97 -550,243 -796,437l0 2c-259,204 -475,445 -644,729 -170,284 -297,606 -374,970l-600 2713c-72,327 -83,625 -34,896 50,265 157,505 323,720 165,204 360,358 584,458 230,103 492,155 789,155zm16761 -1140l0 0c-117,231 -262,442 -437,629 -186,196 -384,347 -596,444 -210,97 -436,147 -676,147 -444,0 -820,-226 -1126,-674l-3382 -4967 -159 -233 -62 284 -1218 5509 -1399 -24 1246 -5647c51,-227 136,-440 255,-635 121,-198 279,-381 472,-549 194,-168 392,-295 592,-377l0 0c197,-83 398,-124 602,-124 217,0 420,55 601,166 188,111 357,280 512,505l3369 5008 158 233 64 -287 1201 -5445 1416 0 -1163 5272c-62,276 -151,533 -270,765z"/>
  <path class="fil1" d="M24063 19678c-2021,2101 -1371,4882 -54,6044 1442,1267 2916,1030 4887,1069 15611,302 72852,-951 75721,-1268 -3348,-26 -61371,-230 -75560,-618 -3988,-106 -5944,-1112 -4994,-5227z"/>
  <path class="fil2" d="M31858 29105l1040 0 185 1376 937 -1376 1035 0 -580 2121 -564 0 446 -1591 -94 0 -1143 1591 -478 0 -276 -1591 -101 0 -419 1591 -566 0 578 -2121zm8156 -31l0 0c395,0 667,12 813,36 210,34 314,151 309,351 -5,142 -51,374 -142,706 -90,330 -171,566 -243,705 -103,199 -272,318 -500,350 -158,24 -440,34 -848,34 -407,0 -683,-10 -830,-34 -212,-32 -313,-151 -309,-350 4,-139 50,-375 141,-705 90,-334 173,-566 244,-706 105,-200 271,-317 502,-351 159,-24 447,-36 863,-36zm-189 553l0 0c-287,0 -465,8 -532,26 -80,23 -141,70 -183,148 -41,76 -89,213 -144,417 -37,132 -54,227 -59,286 -8,107 44,168 157,183 82,13 244,20 489,20 243,0 410,-7 498,-20 121,-15 208,-76 258,-183 29,-61 61,-151 93,-276 43,-154 70,-261 80,-325 17,-107 7,-178 -31,-213 -32,-33 -113,-53 -245,-60 -46,-3 -173,-3 -381,-3zm5003 -522l0 0 2280 0 -147 540 -838 0 -432 1581 -602 0 432 -1581 -840 0 147 -540zm7141 -31l0 0c396,0 667,12 814,36 210,34 314,151 307,351 -4,142 -49,374 -142,706 -89,330 -170,566 -241,705 -107,199 -273,318 -503,350 -158,24 -439,34 -847,34 -407,0 -682,-10 -830,-34 -210,-32 -312,-151 -307,-350 2,-139 49,-375 139,-705 92,-334 172,-566 244,-706 105,-200 273,-317 502,-351 160,-24 446,-36 864,-36zm-188 553l0 0c-289,0 -467,8 -532,26 -81,23 -143,70 -185,148 -41,76 -88,213 -144,417 -36,132 -57,227 -60,286 -6,107 48,168 158,183 82,13 246,20 490,20 244,0 409,-7 497,-20 123,-15 207,-76 258,-183 28,-61 61,-151 95,-276 42,-154 66,-261 78,-325 17,-107 7,-178 -29,-213 -34,-33 -116,-53 -245,-60 -48,-3 -173,-3 -381,-3zm4524 1599l0 0 579 -2121 1385 0c330,2 520,5 578,12 66,7 119,28 165,64 44,39 74,83 90,141 13,63 16,127 3,191 -13,80 -35,173 -65,282 -47,174 -89,294 -129,362 -60,103 -141,172 -242,212 -31,13 -82,25 -145,36 119,11 194,49 228,114 14,33 21,68 21,104 0,40 -10,98 -26,171 -11,37 -30,117 -62,235l-53 197 -568 0 30 -114c34,-126 53,-216 59,-271 6,-80 -19,-125 -75,-138 -37,-9 -119,-16 -243,-16l-811 0 -145 539 -574 0zm865 -1069l0 0 808 0c121,-2 190,-3 214,-7 83,-3 142,-31 177,-82 22,-37 48,-95 70,-180 18,-70 27,-126 24,-160 -6,-52 -42,-83 -115,-88 -26,-1 -100,-3 -232,-5l-804 0 -142 522zm6381 -1052l0 0 1990 0 -138 498 -1415 0 -109 401 1347 0 -133 487 -1349 0 -197 735 -575 0 579 -2121zm4960 2121l0 0 580 -2121 1385 0c327,2 520,5 576,12 68,7 122,28 166,64 44,39 75,83 89,141 14,63 16,127 4,191 -11,80 -34,173 -64,282 -47,174 -90,294 -130,362 -62,103 -139,172 -241,212 -34,13 -83,25 -146,36 117,11 194,49 229,114 16,33 22,68 22,104 0,40 -10,98 -27,171 -11,37 -30,117 -63,235l-54 197 -568 0 31 -114c32,-126 54,-216 59,-271 5,-80 -19,-125 -72,-138 -40,-9 -121,-16 -248,-16l-808 0 -144 539 -576 0zm866 -1069l0 0 806 0c122,-2 193,-3 218,-7 79,-3 140,-31 173,-82 24,-37 50,-95 72,-180 18,-70 26,-126 25,-160 -7,-52 -44,-83 -119,-88 -24,-1 -99,-3 -228,-5l-804 0 -143 522zm5672 -1052l0 0 2087 0 -135 498 -1523 0 -83 305 1443 0 -125 466 -1444 0 -94 342 1533 0 -141 510 -2095 0 577 -2121zm5696 0l0 0 601 0 -578 2121 -603 0 580 -2121zm5178 918l0 0 1312 0c-13,48 -20,78 -23,90 -76,280 -142,493 -196,643 -89,245 -253,392 -492,444 -120,28 -254,43 -391,48 -149,6 -324,8 -523,8 -356,0 -607,-13 -753,-44 -199,-37 -299,-147 -301,-326 0,-89 10,-192 39,-305 36,-141 75,-294 119,-455 73,-274 136,-466 191,-575 75,-156 163,-264 259,-329 53,-30 114,-58 182,-77 68,-18 164,-31 282,-45 170,-15 393,-26 674,-26 361,0 612,19 754,52 141,29 232,87 273,169 34,74 34,187 5,345 -10,42 -26,108 -49,195l-574 0c15,-56 22,-93 22,-115 3,-51 -30,-81 -96,-93 -87,-14 -263,-20 -533,-20 -238,0 -407,8 -501,27 -93,18 -161,71 -205,161 -30,67 -73,190 -120,362 -55,201 -83,337 -89,410 -7,100 43,154 142,164 51,6 204,11 463,13 285,-1 469,-6 553,-17 79,-13 131,-49 158,-110 18,-37 35,-94 56,-172l-755 0 117 -422zm5208 -918l0 0 604 0 -209 759 1298 0 206 -759 602 0 -577 2121 -603 0 209 -767 -1299 0 -209 767 -600 0 578 -2121zm6050 0l0 0 2282 0 -150 540 -838 0 -430 1581 -603 0 430 -1581 -838 0 147 -540z"/>
  <path class="fil2" d="M30782 13774c-2752,-2128 -6421,490 -11661,2227 -3570,1184 -8250,1995 -11930,650 -3854,-1406 -5085,-4881 -4031,-9089 -5914,6102 -3589,14579 7500,14429 7911,-109 16008,-9865 20122,-8217z"/>
  <path class="fil1" d="M30515 13900c-3871,746 -7318,5802 -12026,8774 -4209,2658 -11510,3895 -16850,-1600 3601,2165 6809,2663 9725,2405 3867,-341 7429,-2854 11777,-6218 750,-486 5343,-3897 7374,-3361z"/>
  <path class="fil3" d="M22048 21228c-3010,3268 -5886,4675 -10923,5194 5446,1540 8881,1895 13608,957 -2456,-1529 -3379,-3072 -2685,-6151z"/>
  <path class="fil3" d="M14812 16289c-11493,-3399 -7301,-11391 81,-15989 -5711,1159 -10993,6126 -10980,9943 10,3065 2684,6562 10899,6046z"/>
  <path class="fil1" d="M31306 484c-11734,-1185 -22821,7132 -16063,15133 -13994,-4803 -282,-18333 16063,-15133z"/>
  <path class="fil1" d="M29502 12831c-1520,-955 -2790,-1422 -4145,-1427 -4452,-9 -6761,2742 -10759,626 1608,4908 6555,1560 12068,714 952,-145 1882,-25 2836,87z"/>
 </g>
</svg>
